<?xml version="1.0" standalone="no"?>
<!DOCTYPE svg PUBLIC "-//W3C//DTD SVG 20010904//EN"
 "http://www.w3.org/TR/2001/REC-SVG-20010904/DTD/svg10.dtd">
<svg version="1.0" xmlns="http://www.w3.org/2000/svg"
 width="496.000000pt" height="503.000000pt" viewBox="0 0 496.000000 503.000000"
 preserveAspectRatio="xMidYMid meet">
<metadata>
Created by potrace 1.16, written by Peter Selinger 2001-2019
</metadata>
<g transform="translate(0.000000,503.000000) scale(0.100000,-0.100000)"
fill="#000000" stroke="none">
<path d="M952 5019 c-85 -13 -241 -63 -327 -107 -317 -159 -547 -459 -610
-794 -14 -74 -15 -256 -12 -1633 3 -1545 3 -1550 24 -1620 84 -279 236 -499
446 -649 93 -65 255 -141 374 -174 l98 -27 1492 -3 c1471 -2 1494 -2 1593 18
134 27 175 41 305 105 128 63 216 127 308 224 151 161 248 350 294 578 17 82
18 187 18 1588 0 1403 -1 1506 -18 1588 -89 437 -400 762 -846 885 l-96 27
-1490 1 c-862 1 -1517 -2 -1553 -7z m3106 -287 c233 -72 424 -227 530 -430 61
-117 82 -195 85 -309 l2 -85 -55 -17 c-129 -41 -276 -140 -361 -245 -68 -84
-127 -205 -144 -297 -14 -74 -16 -79 -74 -134 -152 -145 -230 -349 -218 -570
7 -125 26 -197 78 -301 128 -257 383 -421 687 -441 l92 -6 0 -274 0 -273 -255
0 -255 0 0 86 c0 129 -36 184 -120 184 -84 0 -120 -55 -120 -184 l0 -86 -210
0 -210 0 0 25 c0 13 14 122 30 241 32 226 31 261 -1 326 -43 85 -140 158 -211
158 -22 0 -29 6 -34 28 -35 157 -99 305 -190 434 -30 43 -54 81 -54 85 0 4 25
23 55 41 139 84 239 193 311 337 83 168 83 174 88 791 2 298 0 560 -4 581 -12
51 -50 83 -100 83 -31 0 -56 -12 -132 -64 -51 -36 -171 -118 -266 -182 l-173
-117 -62 21 c-193 68 -427 69 -583 2 -25 -11 -53 -20 -62 -20 -15 1 -236 150
-408 274 -137 100 -183 111 -238 57 l-31 -31 0 -568 c0 -613 0 -617 56 -763
57 -149 178 -297 322 -391 68 -45 76 -53 65 -69 -122 -166 -191 -306 -223
-450 l-16 -75 -58 -12 c-71 -15 -132 -57 -171 -119 -49 -76 -49 -119 -5 -443
8 -58 17 -122 20 -142 l5 -38 -215 0 -215 0 0 90 c0 103 -14 141 -60 165 -65
34 -138 7 -166 -61 -8 -19 -14 -68 -14 -114 l0 -80 -250 0 -250 0 0 274 0 273
90 7 c123 9 229 38 335 90 159 79 272 192 351 351 54 110 76 208 76 340 0 217
-74 399 -222 544 -50 49 -58 63 -65 106 -15 103 -79 235 -160 331 -80 94 -219
187 -335 224 l-70 23 0 61 c1 275 191 559 465 696 193 96 51 89 1755 87 l1495
-2 73 -23z m-3695 -1095 c157 -87 268 -232 284 -369 5 -48 12 -59 67 -118 106
-111 143 -175 177 -305 49 -186 0 -401 -122 -530 -111 -117 -234 -174 -396
-182 l-103 -6 0 220 0 220 200 184 c111 101 203 194 206 206 18 68 -42 126
-111 109 -13 -3 -77 -54 -142 -112 -65 -58 -126 -109 -135 -115 -17 -9 -18 13
-18 411 0 480 -9 444 93 387z m4315 -292 c0 -154 -3 -286 -6 -293 -3 -8 -34
16 -87 67 -75 74 -86 81 -122 81 -62 0 -108 -63 -82 -112 6 -13 74 -86 151
-164 l140 -141 3 -83 3 -82 -67 65 c-36 35 -78 67 -94 71 -32 7 -81 -15 -97
-43 -26 -50 -15 -69 125 -211 l135 -136 0 -104 c0 -58 -4 -111 -9 -119 -15
-23 -180 -9 -264 23 -178 67 -305 206 -352 387 -23 87 -16 260 14 342 31 88
88 175 157 243 60 58 64 65 73 125 13 77 65 187 121 250 46 54 132 114 199
140 46 17 46 17 52 -4 4 -12 7 -148 7 -302z m-2571 193 c89 -61 79 -183 -20
-232 -103 -50 -217 61 -175 172 29 76 127 106 195 60z m862 4 c79 -43 93 -149
28 -209 -20 -17 -51 -35 -71 -38 -74 -14 -149 53 -149 134 0 103 100 162 192
113z m-401 -204 c46 -46 -40 -147 -113 -134 -57 11 -113 97 -85 131 16 19 180
21 198 3z m-48 -273 c30 -48 72 -81 114 -89 25 -5 36 -12 36 -24 0 -30 -21
-42 -72 -42 -41 0 -54 5 -88 37 l-41 36 -15 -21 c-21 -31 -67 -52 -110 -52
-34 0 -74 22 -74 41 0 4 28 22 63 38 43 22 70 43 89 71 36 52 68 54 98 5z
m-234 -1203 c6 -4 19 -23 29 -42 38 -77 88 -110 163 -110 58 0 105 27 139 80
12 19 30 45 38 58 l17 23 320 -3 320 -3 19 -24 c37 -46 37 -103 -1 -141 -20
-20 -37 -20 -855 -20 l-836 0 -24 25 c-19 18 -25 35 -25 69 0 37 5 48 31 70
l31 26 311 0 c172 0 317 -4 323 -8z m-504 -425 c86 -70 144 -106 243 -153 368
-175 826 -115 1127 147 64 55 91 59 83 12 -9 -56 -133 -938 -150 -1072 -13
-99 37 -92 -617 -89 l-571 3 -18 25 c-13 19 -28 108 -63 375 -25 193 -60 449
-76 570 -16 121 -30 221 -30 223 0 10 26 -5 72 -41z m1208 31 c0 -16 -132 -82
-225 -114 -213 -71 -418 -64 -634 20 -63 25 -161 82 -161 95 0 3 230 6 510 6
281 0 510 -3 510 -7z m-2219 -430 c1 -46 2 -99 3 -118 l1 -35 -234 0 -235 0
-13 50 c-7 28 -16 80 -19 118 l-7 67 252 0 251 0 1 -82z m696 -3 c6 -44 12
-97 12 -118 l1 -37 -232 2 -233 3 -3 104 c-1 58 0 111 2 118 5 11 49 13 223
11 l218 -3 12 -80z m2461 -37 l3 -118 -236 0 c-138 0 -235 4 -235 9 0 12 19
155 26 199 l5 32 217 -2 217 -3 3 -117z m749 55 c-3 -38 -10 -92 -17 -120
l-12 -53 -239 0 -239 0 0 120 0 120 256 0 257 0 -6 -67z m-3905 -550 c2 -82 3
-149 2 -151 -4 -7 -91 42 -150 84 -60 42 -204 187 -204 205 0 5 78 9 174 9
l174 0 4 -147z m764 -23 c11 -91 18 -168 14 -173 -3 -4 -125 -6 -271 -5 l-264
3 -3 160 c-1 87 0 165 2 172 4 11 56 13 253 11 l248 -3 21 -165z m2394 -5 l0
-175 -270 0 c-213 0 -270 3 -270 13 0 16 28 248 36 300 l6 37 249 0 249 0 0
-175z m600 167 c0 -16 -89 -115 -151 -167 -67 -56 -174 -125 -196 -125 -10 0
-13 35 -13 150 l0 150 180 0 c99 0 180 -3 180 -8z"/>
<path d="M2058 994 c-15 -8 -31 -27 -35 -42 -3 -15 3 -112 16 -217 25 -218 33
-238 97 -243 55 -4 87 30 86 90 -1 64 -31 317 -42 360 -17 62 -66 83 -122 52z"/>
<path d="M2804 998 c-12 -5 -27 -20 -33 -32 -10 -19 -51 -341 -51 -401 0 -65
94 -99 138 -52 19 20 26 52 47 222 14 109 23 206 20 216 -9 26 -54 59 -79 58
-11 0 -31 -5 -42 -11z"/>
</g>
</svg>
